<svg width="266" height="52" viewBox="0 0 266 52" fill="none" xmlns="http://www.w3.org/2000/svg">
<path d="M2.736 13.8H7.92V34.464H17.964V39H2.736V13.8ZM20.2286 16.032C20.2286 15.264 20.4926 14.628 21.0206 14.124C21.5726 13.62 22.2446 13.368 23.0366 13.368C23.8286 13.368 24.4886 13.62 25.0166 14.124C25.5686 14.628 25.8446 15.264 25.8446 16.032C25.8446 16.776 25.5686 17.412 25.0166 17.94C24.4886 18.444 23.8286 18.696 23.0366 18.696C22.2446 18.696 21.5726 18.444 21.0206 17.94C20.4926 17.412 20.2286 16.776 20.2286 16.032ZM20.7326 22.44H25.2686V39H20.7326V22.44ZM40.2981 22.44H45.4821L39.3621 30.504L45.8421 39H40.6581L36.9861 33.744L33.2781 39H27.9141L34.4661 30.504L28.2741 22.44H33.6381L36.9861 27.192L40.2981 22.44Z" fill="#393E46"/>
<path d="M77.0527 25.2617H80C80 17.7018 74.2925 12.0002 66.7223 12.0002V14.9475C72.7083 14.9475 77.0527 19.2845 77.0527 25.2617Z" fill="#5C7AEA"/>
<path d="M66.737 20.8422C69.8362 20.8422 71.158 22.1641 71.158 25.2632H74.1054C74.1054 20.5106 71.4896 17.8949 66.737 17.8949V20.8422ZM71.7799 28.8633C71.4967 28.606 71.1246 28.4687 70.7422 28.4805C70.3597 28.4923 69.9968 28.6523 69.73 28.9267L66.2036 32.5534C65.3547 32.3913 63.6482 31.8593 61.8916 30.1071C60.135 28.349 59.603 26.6381 59.4454 25.7952L63.0691 22.2672C63.3438 22.0007 63.504 21.6377 63.5159 21.2551C63.5277 20.8725 63.3902 20.5004 63.1325 20.2174L57.6873 14.2299C57.4295 13.946 57.0711 13.7738 56.6884 13.7498C56.3056 13.7259 55.9286 13.8521 55.6374 14.1017L52.4396 16.8441C52.1848 17.0998 52.0327 17.4402 52.0122 17.8005C51.9901 18.169 51.5686 26.896 58.3357 33.666C64.2392 39.568 71.634 39.9998 73.6706 39.9998C73.9683 39.9998 74.151 39.991 74.1997 39.988C74.56 39.9678 74.9001 39.8151 75.1546 39.5592L77.8956 36.3599C78.1453 36.0688 78.2718 35.6919 78.2481 35.3092C78.2245 34.9265 78.0526 34.568 77.7689 34.31L71.7799 28.8633Z" fill="#5C7AEA"/>
<path d="M105.944 39L103.064 32.52H93.776L90.896 39H86.108L98.42 12.396L110.732 39H105.944ZM98.42 20.928L95 28.92H101.84L98.42 20.928ZM111.035 22.44H113.807V16.68H117.659V22.44H120.431V25.86H117.659V39H113.807V25.86H111.035V22.44ZM120.809 22.44H123.581V16.68H127.433V22.44H130.205V25.86H127.433V39H123.581V25.86H120.809V22.44ZM140.086 39.36C138.382 39.36 136.894 39 135.622 38.28C134.35 37.56 133.366 36.552 132.67 35.256C131.974 33.96 131.626 32.448 131.626 30.72C131.626 28.968 131.974 27.456 132.67 26.184C133.39 24.888 134.398 23.88 135.694 23.16C136.99 22.44 138.514 22.08 140.266 22.08C142.882 22.08 144.91 22.836 146.35 24.348C147.814 25.836 148.546 27.9 148.546 30.54C148.546 30.756 148.534 30.972 148.51 31.188C148.51 31.38 148.51 31.524 148.51 31.62H135.622C135.766 33.06 136.234 34.176 137.026 34.968C137.842 35.76 138.922 36.156 140.266 36.156C142.378 36.156 143.962 35.28 145.018 33.528L148.402 34.86C146.674 37.86 143.902 39.36 140.086 39.36ZM140.23 25.032C137.71 25.032 136.21 26.328 135.73 28.92H144.298C144.226 27.744 143.818 26.808 143.074 26.112C142.33 25.392 141.382 25.032 140.23 25.032ZM162.913 28.92C162.913 26.448 161.893 25.212 159.853 25.212C158.749 25.212 157.849 25.548 157.153 26.22C156.481 26.892 156.145 27.792 156.145 28.92V39H152.257V22.44H156.145V24.996C157.201 23.052 158.869 22.08 161.149 22.08C163.021 22.08 164.449 22.656 165.433 23.808C166.417 24.936 166.909 26.496 166.909 28.488V39H162.913V28.92ZM170.615 30.72C170.615 28.896 170.987 27.348 171.731 26.076C172.475 24.78 173.459 23.796 174.683 23.124C175.907 22.428 177.239 22.08 178.679 22.08C181.151 22.08 183.035 23.112 184.331 25.176V10.92H188.255V39H184.331V36.264C183.035 38.328 181.151 39.36 178.679 39.36C177.239 39.36 175.907 39.024 174.683 38.352C173.459 37.656 172.475 36.66 171.731 35.364C170.987 34.068 170.615 32.52 170.615 30.72ZM174.647 30.72C174.647 32.376 175.139 33.672 176.123 34.608C177.107 35.52 178.271 35.976 179.615 35.976C180.359 35.976 181.091 35.772 181.811 35.364C182.531 34.956 183.131 34.368 183.611 33.6C184.091 32.808 184.331 31.848 184.331 30.72C184.331 29.592 184.091 28.644 183.611 27.876C183.131 27.084 182.531 26.484 181.811 26.076C181.091 25.668 180.359 25.464 179.615 25.464C178.271 25.464 177.107 25.932 176.123 26.868C175.139 27.78 174.647 29.064 174.647 30.72ZM194.263 26.76L192.679 24.024C193.447 23.568 194.419 23.124 195.595 22.692C196.771 22.26 198.127 22.044 199.663 22.044C201.703 22.044 203.371 22.5 204.667 23.412C205.987 24.3 206.647 25.56 206.647 27.192V39H202.831V36.732C202.303 37.62 201.523 38.28 200.491 38.712C199.459 39.144 198.415 39.36 197.359 39.36C196.327 39.36 195.367 39.156 194.479 38.748C193.591 38.34 192.883 37.74 192.355 36.948C191.827 36.156 191.563 35.196 191.563 34.068C191.563 32.46 192.127 31.188 193.255 30.252C194.407 29.292 196.003 28.812 198.043 28.812C199.123 28.812 200.059 28.932 200.851 29.172C201.643 29.412 202.303 29.676 202.831 29.964V27.948C202.831 26.94 202.495 26.232 201.823 25.824C201.175 25.416 200.335 25.212 199.303 25.212C198.127 25.212 197.083 25.404 196.171 25.788C195.259 26.172 194.623 26.496 194.263 26.76ZM195.487 33.852C195.487 34.668 195.775 35.304 196.351 35.76C196.951 36.216 197.695 36.444 198.583 36.444C199.735 36.444 200.731 36.096 201.571 35.4C202.411 34.68 202.831 33.696 202.831 32.448V32.196C201.679 31.644 200.395 31.368 198.979 31.368C197.755 31.368 196.867 31.596 196.315 32.052C195.763 32.484 195.487 33.084 195.487 33.852ZM221.835 28.92C221.835 26.448 220.815 25.212 218.775 25.212C217.671 25.212 216.771 25.548 216.075 26.22C215.403 26.892 215.067 27.792 215.067 28.92V39H211.179V22.44H215.067V24.996C216.123 23.052 217.791 22.08 220.071 22.08C221.943 22.08 223.371 22.656 224.355 23.808C225.339 24.936 225.831 26.496 225.831 28.488V39H221.835V28.92ZM233.389 30.72C233.389 31.752 233.617 32.676 234.073 33.492C234.529 34.284 235.141 34.908 235.909 35.364C236.701 35.796 237.577 36.012 238.537 36.012C239.737 36.012 240.829 35.748 241.813 35.22C242.821 34.692 243.529 34.02 243.937 33.204V37.488C243.361 38.088 242.581 38.556 241.597 38.892C240.613 39.204 239.533 39.36 238.357 39.36C236.653 39.36 235.117 39 233.749 38.28C232.405 37.536 231.337 36.516 230.545 35.22C229.777 33.9 229.393 32.4 229.393 30.72C229.393 29.016 229.777 27.516 230.545 26.22C231.337 24.924 232.405 23.916 233.749 23.196C235.117 22.452 236.653 22.08 238.357 22.08C239.533 22.08 240.613 22.248 241.597 22.584C242.581 22.92 243.361 23.364 243.937 23.916V28.236C243.529 27.42 242.809 26.748 241.777 26.22C240.769 25.692 239.689 25.428 238.537 25.428C237.577 25.428 236.701 25.656 235.909 26.112C235.141 26.568 234.529 27.192 234.073 27.984C233.617 28.776 233.389 29.688 233.389 30.72ZM255.434 39.36C253.73 39.36 252.242 39 250.97 38.28C249.698 37.56 248.714 36.552 248.018 35.256C247.322 33.96 246.974 32.448 246.974 30.72C246.974 28.968 247.322 27.456 248.018 26.184C248.738 24.888 249.746 23.88 251.042 23.16C252.338 22.44 253.862 22.08 255.614 22.08C258.23 22.08 260.258 22.836 261.698 24.348C263.162 25.836 263.894 27.9 263.894 30.54C263.894 30.756 263.882 30.972 263.858 31.188C263.858 31.38 263.858 31.524 263.858 31.62H250.97C251.114 33.06 251.582 34.176 252.374 34.968C253.19 35.76 254.27 36.156 255.614 36.156C257.726 36.156 259.31 35.28 260.366 33.528L263.75 34.86C262.022 37.86 259.25 39.36 255.434 39.36ZM255.578 25.032C253.058 25.032 251.558 26.328 251.078 28.92H259.646C259.574 27.744 259.166 26.808 258.422 26.112C257.678 25.392 256.73 25.032 255.578 25.032Z" fill="#393E46"/>
</svg>
